<svg width="116" height="116" viewBox="0 0 116 116" fill="none" xmlns="http://www.w3.org/2000/svg">
<g clip-path="url(#clip0_0_221)">
<path d="M104.1 0H112C104.9 7.1 101 11 93.9 18.1H21.9C14.8 11 10.9 7.1 3.8 0H11.7C14.3 2.6 15.7 4 18.3 6.6H97.4C100 4 101.5 2.6 104.1 0ZM115.8 11.7V3.8C108.7 10.9 104.8 14.8 97.7 21.9V93.9C104.8 101 108.7 104.9 115.8 112V104.1C113.2 101.5 111.8 100.1 109.2 97.5V18.3C111.7 15.7 113.2 14.3 115.8 11.7ZM0 104.1V112C7.1 104.9 11 101 18.1 93.9V21.9C11 14.8 7.1 10.9 0 3.8V11.7C2.6 14.3 4 15.7 6.6 18.3V97.4C4 100 2.6 101.5 0 104.1ZM18.3 109.1H97.4C100 111.7 101.4 113.1 104 115.7H111.9C104.8 108.6 100.9 104.7 93.8 97.6H21.8C14.7 104.7 10.8 108.6 3.7 115.7H11.6C14.3 113.2 15.7 111.7 18.3 109.1Z" fill="#E30213"/>
</g>
<defs>
<clipPath id="clip0_0_221">
<rect width="115.8" height="115.8" fill="white"/>
</clipPath>
</defs>
</svg>
