<svg width="27" height="20" viewBox="0 0 27 20" fill="none" xmlns="http://www.w3.org/2000/svg">
<path d="M22.8716 1.67497C21.1238 0.89249 19.255 0.323786 17.3013 0C17.0613 0.41511 16.781 0.973432 16.5877 1.4176C14.5108 1.11872 12.453 1.11872 10.4143 1.4176C10.2211 0.973432 9.93432 0.41511 9.69229 0C7.7364 0.323786 5.86547 0.894565 4.11772 1.67912C0.592474 6.77668 -0.363163 11.7477 0.114656 16.648C2.45278 18.3188 4.7187 19.3337 6.9464 19.9979C7.49642 19.2736 7.98698 18.5036 8.40959 17.692C7.60473 17.3993 6.83385 17.0382 6.10544 16.6189C6.29869 16.482 6.4877 16.3387 6.67033 16.1914C11.113 18.1797 15.94 18.1797 20.3296 16.1914C20.5143 16.3387 20.7033 16.482 20.8945 16.6189C20.1639 17.0402 19.3909 17.4014 18.5861 17.6941C19.0087 18.5036 19.4971 19.2757 20.0492 20C22.279 19.3358 24.5471 18.3209 26.8852 16.648C27.4459 10.9672 25.9275 6.04193 22.8716 1.67497ZM9.01482 13.6343C7.68119 13.6343 6.58751 12.4429 6.58751 10.9922C6.58751 9.54132 7.65782 8.34791 9.01482 8.34791C10.3718 8.34791 11.4655 9.53924 11.4421 10.9922C11.4443 12.4429 10.3718 13.6343 9.01482 13.6343ZM17.9851 13.6343C16.6514 13.6343 15.5577 12.4429 15.5577 10.9922C15.5577 9.54132 16.6281 8.34791 17.9851 8.34791C19.342 8.34791 20.4358 9.53924 20.4124 10.9922C20.4124 12.4429 19.342 13.6343 17.9851 13.6343Z" fill="white"/>
</svg>
