<svg width="27" height="33" viewBox="0 0 27 33" fill="none" xmlns="http://www.w3.org/2000/svg">
<path fill-rule="evenodd" clip-rule="evenodd" d="M24.5481 1.99998H2.45193C0.660961 1.99998 0 2.65396 0 4.42684V25.8193C0 26.02 0.00817685 26.2063 0.0260888 26.379C0.0668634 26.766 0.0745401 27.1409 0.438285 27.5679C0.473831 27.6097 0.845198 27.8831 0.845198 27.8831C1.04495 27.9801 1.18135 28.0515 1.40664 28.1412L12.2871 32.6515C12.8519 32.9077 13.0881 33.0076 13.4984 32.9996V32.9996C13.4989 32.9996 13.4994 32.9996 13.5 32.9996C13.5005 32.9996 13.501 32.9996 13.5016 32.9996V32.9996C13.9118 33.0076 14.148 32.9077 14.7129 32.6515L25.5933 28.1412C25.8186 28.0515 25.955 27.9801 26.1548 27.8831C26.1548 27.8831 26.5262 27.6097 26.5616 27.5679C26.9254 27.1409 26.9331 26.766 26.9738 26.379C26.9918 26.2063 27 26.02 27 25.8193V4.42684C27 2.65396 26.339 1.99998 24.5481 1.99998Z" fill="white"/>
<path d="M23.0681 23.5073L23.0631 23.5567L23.0581 23.6109L23.0481 23.6603L23.0332 23.7096L23.0235 23.754L23.0085 23.8034L22.9886 23.8478L22.9686 23.8873L22.949 23.9317L22.9241 23.9711L22.8991 24.0107L22.8695 24.0501L22.8445 24.0896L22.8149 24.1241L22.78 24.1587L22.7503 24.1883L22.7105 24.2228L22.6758 24.2525L22.636 24.2821L22.5964 24.3064L22.5568 24.336L22.5119 24.3607L22.4672 24.3804L22.4227 24.4051L22.3728 24.4248L22.3232 24.4446L22.2737 24.4593L22.2241 24.4742L22.1792 24.489L22.1296 24.4989L22.085 24.5087L22.0405 24.5186L21.9906 24.5285L21.941 24.5334L21.8964 24.5383L21.8465 24.5433L21.792 24.5482L21.7424 24.5531H21.6928H21.6382H21.5834H21.5338L21.4842 24.5482H21.4297L21.3801 24.5433L21.3302 24.5383L21.2757 24.5334L21.2261 24.5235L21.1765 24.5186L21.1266 24.5087L21.077 24.4989L21.0275 24.489L20.9779 24.4791L20.928 24.4644L20.8834 24.4545L20.8339 24.4396L20.7843 24.4248L20.7394 24.4051L20.6899 24.3903L20.6452 24.3755L20.5956 24.3558L20.5508 24.336L20.5062 24.3162L20.4616 24.2919L20.4167 24.2722L20.3721 24.2474L20.3325 24.2228L20.2876 24.1981L20.248 24.1735L20.2081 24.1488L20.1685 24.1192L20.1289 24.0896L20.089 24.06L20.0494 24.0304L20.0145 24.0008L19.9749 23.9663L20.0048 23.9268L20.0394 23.8922L20.0693 23.8527L20.104 23.8132L20.1339 23.7787L20.1635 23.7393L20.1984 23.6998L20.228 23.6652L20.263 23.6258L20.2926 23.5912L20.3275 23.5517L20.3571 23.5122L20.3871 23.4777L20.4217 23.4383L20.4516 23.3987L20.4862 23.3642L20.5161 23.3248L20.5557 23.3544L20.6003 23.384L20.6402 23.4136L20.6848 23.4432L20.7247 23.4679L20.7693 23.4974L20.8089 23.5221L20.8538 23.5418L20.8934 23.5666L20.938 23.5863L20.9829 23.606L21.0275 23.6258L21.0721 23.6406L21.117 23.6603L21.1665 23.6751L21.2161 23.6899L21.2607 23.7047L21.3106 23.7146L21.3602 23.7245L21.4097 23.7343L21.4643 23.7393L21.5141 23.7491H21.5638L21.6183 23.754H21.6679H21.7274L21.782 23.7491L21.8319 23.7393L21.8764 23.7294L21.921 23.7195L21.9609 23.7047L21.9956 23.685L22.0355 23.6554L22.0651 23.6208L22.085 23.5813L22.1001 23.5369L22.1049 23.4876V23.4777L22.1001 23.4185L22.0801 23.3691L22.0551 23.3346L22.0205 23.305L21.9806 23.2754L21.941 23.2557L21.8964 23.2359L21.8465 23.2162L21.787 23.1916L21.7523 23.1817L21.7128 23.1718L21.6679 23.157L21.6233 23.1471L21.5737 23.1323L21.5238 23.1224L21.4693 23.1076L21.4197 23.0978L21.3651 23.083L21.3155 23.0731L21.2656 23.0583L21.2161 23.0484L21.1665 23.0336L21.1216 23.0189L21.0721 23.009L21.0275 22.9941L20.9829 22.9793L20.938 22.9645L20.8834 22.9448L20.8339 22.925L20.7843 22.9053L20.7344 22.8856L20.6899 22.8609L20.6402 22.8362L20.6003 22.8116L20.5557 22.7869L20.5161 22.7573L20.4762 22.7327L20.4416 22.703L20.4068 22.6685L20.3721 22.6339L20.3422 22.5993L20.3126 22.5648L20.2876 22.5303L20.263 22.4908L20.238 22.4464L20.2181 22.4122L20.2031 22.3727L20.1885 22.3283L20.1735 22.2888L20.1635 22.2394L20.1536 22.195L20.1485 22.1457L20.1436 22.0963L20.1386 22.0421V21.9878V21.978V21.9286L20.1436 21.8793L20.1485 21.8348L20.1536 21.7855L20.1635 21.7411L20.1735 21.6967L20.1885 21.6522L20.1984 21.6079L20.2181 21.5635L20.238 21.519L20.258 21.4747L20.2827 21.4302L20.3075 21.3858L20.3372 21.3463L20.3672 21.3069L20.4018 21.2674L20.4366 21.2329L20.4713 21.1934L20.5112 21.1588L20.5458 21.1341L20.5857 21.1045L20.6253 21.0749L20.6649 21.0503L20.7098 21.0256L20.7544 21.0058L20.7989 20.9812L20.8438 20.9615L20.8934 20.9466L20.943 20.9269L20.9878 20.9121L21.0275 20.9022L21.0721 20.8924L21.117 20.8825L21.1665 20.8727L21.2111 20.8627L21.2607 20.8578L21.3106 20.8529L21.3602 20.8479L21.4097 20.843H21.4593H21.5141H21.5688H21.6233L21.6778 20.8479L21.7324 20.8529H21.782L21.8368 20.8578L21.8864 20.8677L21.941 20.8727L21.9906 20.8825L22.0355 20.8924L22.085 20.9022L22.1346 20.9121L22.1792 20.922L22.2291 20.9368L22.2737 20.9516L22.3183 20.9615L22.3681 20.9812L22.4127 20.996L22.4573 21.0157L22.5019 21.0355L22.5517 21.0552L22.5964 21.0799L22.636 21.0996L22.6809 21.1243L22.7255 21.1489L22.7651 21.1737L22.8099 21.2033L22.8496 21.2279L22.8895 21.2575L22.9291 21.2872L22.9686 21.3167L22.939 21.3562L22.9141 21.3957L22.8845 21.4352L22.8545 21.4747L22.8249 21.519L22.8 21.5585L22.77 21.598L22.7404 21.6375L22.7155 21.6769L22.6858 21.7165L22.6559 21.7559L22.631 21.7954L22.6014 21.8398L22.5714 21.8793L22.5418 21.9187L22.5169 21.9582L22.4872 21.9977L22.4473 21.9681L22.4028 21.9434L22.3631 21.9187L22.3232 21.8891L22.2787 21.8694L22.2387 21.8447L22.1942 21.8249L22.1546 21.8052L22.1097 21.7855L22.0701 21.7658L22.0255 21.751L21.9856 21.7312L21.931 21.7165L21.8814 21.7016L21.8319 21.6868L21.782 21.6769L21.7324 21.6671L21.6828 21.6572L21.6333 21.6522L21.5834 21.6473L21.5388 21.6424H21.4892H21.4297L21.3751 21.6522L21.3252 21.6621L21.2807 21.672L21.2411 21.6917L21.2061 21.7115L21.1615 21.751L21.1316 21.7954L21.112 21.8398L21.1069 21.8891V21.899L21.112 21.9631L21.1366 22.0174L21.1566 22.047L21.1912 22.0816L21.2361 22.1062L21.2757 22.1309L21.3252 22.1507L21.3801 22.1704L21.4396 22.1901L21.4793 22.2L21.5189 22.2148L21.5638 22.2246L21.6083 22.2394L21.6579 22.2494L21.7128 22.2642L21.7673 22.2789L21.8219 22.2938L21.8764 22.3036L21.926 22.3184L21.9806 22.3332L22.0305 22.3431L22.0801 22.3579L22.1296 22.3727L22.1742 22.3875L22.2241 22.4023L22.2687 22.4171L22.3133 22.4319L22.3681 22.4513L22.4177 22.4761L22.4672 22.4958L22.5169 22.5204L22.5618 22.5451L22.6064 22.5698L22.6459 22.5944L22.6858 22.6241L22.7255 22.6487L22.7651 22.6833L22.805 22.7178L22.8396 22.7573L22.8744 22.7918L22.9041 22.8313L22.934 22.8757L22.9587 22.9152L22.9836 22.9596L23.0035 22.9991L23.0185 23.0435L23.0332 23.0879L23.0432 23.1323L23.0531 23.1817L23.0631 23.231L23.0681 23.2803L23.0731 23.3346V23.3889V23.3987V23.4531L23.0681 23.5073ZM19.5862 24.494H19.5363H19.4868H19.4372H19.3876H19.3377H19.2881H19.2386H19.189H19.1341H19.0846H19.035H18.9854H18.9355H18.886H18.8364H18.7868H18.7369H18.6873H18.6378H18.5882H18.5386H18.4887H18.4392H18.3896H18.34H18.2901H18.2405H18.191H18.1364H18.0866H18.0369H17.9874H17.9378H17.888H17.8384H17.7888H17.7392H17.6893H17.6398H17.5902H17.5406H17.4907H17.4412H17.3916H17.342H17.2922H17.2425H17.188H17.1384H17.0888H17.0389H16.9894H16.9398H16.8902H16.8404H16.7908H16.7412V24.4446V24.3952V24.3459V24.2968V24.2474V24.1981V24.1488V24.0995V24.0501V24.0008V23.9514V23.9021V23.8527V23.8034V23.754V23.7047V23.6554V23.606V23.5616V23.5122V23.4629V23.4136V23.3642V23.3149V23.2655V23.2162V23.1668V23.1175V23.0682V23.0189V22.9695V22.9201V22.8708V22.8214V22.7721V22.7227V22.6734V22.6241V22.5747V22.5254V22.4761V22.427V22.3776V22.3283V22.2789V22.2296V22.1803V22.1309V22.0816V22.0322V21.9829V21.9335V21.8842V21.8348V21.7904V21.7411V21.6917V21.6424V21.5931V21.5437V21.4944V21.445V21.3957V21.3463V21.297V21.2476V21.1983V21.1489V21.0996V21.0503V21.0009V20.9516V20.9022H16.7908H16.8404H16.8902H16.9398H16.9894H17.0389H17.0888H17.1384H17.188H17.2376H17.2874H17.337H17.3865H17.4362H17.481H17.5306H17.5802H17.6298H17.6796H17.7292H17.7788H17.8284H17.8782H17.9278H17.9774H18.027H18.0769H18.1264H18.176H18.2256H18.2755H18.3251H18.3746H18.4242H18.4738H18.5237H18.5732H18.6228H18.6724H18.7223H18.7718H18.8214H18.871H18.9159H18.9655H19.015H19.0647H19.1145H19.1641H19.2136H19.2632H19.3131H19.3626H19.4122H19.4618H19.5117H19.5613H19.6109V20.9516V20.996V21.0453V21.0947V21.144V21.1884V21.2378V21.2872V21.3315V21.3809V21.4302V21.4747V21.524V21.5733V21.6227V21.6671V21.7165H19.5613H19.5117H19.4618H19.4122H19.3626H19.3131H19.2682H19.2186H19.1691H19.1194H19.0696H19.02H18.9704H18.9209H18.871H18.8214H18.7718H18.7223H18.6724H18.6278H18.5782H18.5286H18.4787H18.4292H18.3796H18.33H18.2801H18.2306H18.181H18.1315H18.0816H18.0319H17.9874H17.9378H17.888H17.8384H17.7888H17.7392H17.6893V21.7658V21.8151V21.8644V21.9138V21.9631V22.0076V22.0569V22.1062V22.1556V22.2049V22.2543V22.3036H17.7392H17.7888H17.8384H17.888H17.9378H17.9874H18.0369H18.0866H18.1315H18.181H18.2306H18.2801H18.33H18.3796H18.4292H18.4787H18.5286H18.5782H18.6278H18.6774H18.7272H18.7768H18.8264H18.876H18.9259H18.9754H19.02H19.0696H19.1194H19.1691H19.2186H19.2682H19.318H19.3677H19.4172V22.3529V22.3974V22.4464V22.4958V22.5402V22.5895V22.6389V22.6833V22.7327V22.782V22.8313V22.8757V22.925V22.9744V23.0189V23.0682H19.3677H19.318H19.2682H19.2186H19.1691H19.1194H19.0696H19.02H18.9754H18.9259H18.876H18.8264H18.7768H18.7272H18.6774H18.6278H18.5782H18.5286H18.4787H18.4292H18.3796H18.33H18.2801H18.2306H18.181H18.1315H18.0866H18.0369H17.9874H17.9378H17.888H17.8384H17.7888H17.7392H17.6893V23.1175V23.1718V23.2211V23.2705V23.3248V23.3741V23.4235V23.4777V23.527V23.5764V23.6307V23.68H17.7392H17.7888H17.8384H17.888H17.9378H17.9874H18.0369H18.0866H18.1364H18.191H18.2405H18.2901H18.34H18.3896H18.4392H18.4887H18.5386H18.5882H18.6378H18.6873H18.7369H18.7868H18.8364H18.886H18.9355H18.9854H19.035H19.0846H19.1341H19.189H19.2386H19.2881H19.3377H19.3876H19.4372H19.4868H19.5363H19.5862H19.6358V23.7294V23.7738V23.8231V23.8725V23.9218V23.9663V24.0156V24.0649V24.1094V24.1587V24.208V24.2525V24.3015V24.3508V24.4001V24.4446V24.494H19.5862ZM15.9585 24.494H15.9089H15.8593H15.8045H15.755H15.7053H15.6558H15.6059H15.5563H15.5017H15.4522H15.4026H15.3527H15.3032H15.2536H15.199H15.1491H15.0996H15.0499V24.4446V24.3952V24.3459V24.2965V24.2469V24.1976V24.1482V24.0988V24.0495V24.0002V23.9508V23.9012V23.8519V23.8025V23.7532V23.7038V23.6542V23.6048V23.5555V23.5062V23.4568V23.4075V23.3578V23.3085V23.2592V23.2098V23.1605V23.1111V23.0615V23.0121V22.9628V22.9135V22.8641V22.8148V22.7651V22.7158V22.6664V22.6171V22.5678V22.5181V22.4688V22.4194V22.3701L15.0251 22.4095L14.9954 22.4543L14.9704 22.4937L14.9409 22.5332L14.9159 22.5776L14.8859 22.6171L14.8614 22.6566L14.8364 22.7013L14.8068 22.7407L14.7818 22.7802L14.7519 22.8197L14.7273 22.8644L14.6974 22.9039L14.6727 22.9433L14.6478 22.9878L14.6178 23.0275L14.5932 23.067L14.5633 23.1114L14.5387 23.1509L14.5087 23.1904L14.4841 23.2351L14.4591 23.2746L14.4292 23.314L14.4046 23.3585L14.3747 23.3982L14.35 23.4377L14.3201 23.4772L14.2951 23.5215L14.2705 23.5613L14.2406 23.6008L14.216 23.6452L14.186 23.6847L14.1611 23.7241L14.1315 23.7689L14.1066 23.8083H14.0869L14.057 23.7639L14.032 23.7241L14.0024 23.6797L13.9774 23.6403L13.9478 23.5959L13.9229 23.5561L13.8933 23.5117L13.8683 23.4722L13.8384 23.4278L13.8137 23.3883L13.7838 23.3436L13.7592 23.3041L13.7293 23.2597L13.7043 23.2202L13.6747 23.1756L13.6497 23.1361L13.6202 23.0917L13.5902 23.0522L13.5653 23.0075L13.5357 22.9681L13.5107 22.9236L13.4811 22.8842L13.4562 22.8394L13.4265 22.8L13.4016 22.7555L13.3717 22.7161L13.347 22.6717L13.3171 22.6319L13.2925 22.5875L13.2625 22.548L13.2376 22.5036L13.208 22.4642L13.183 22.4194L13.1534 22.38V22.4293V22.4786V22.528V22.5776V22.627V22.6763V22.7257V22.775V22.8246V22.874V22.9184V22.9677V23.0171V23.0664V23.1161V23.1654V23.2147V23.2641V23.3134V23.3628V23.4124V23.4618V23.5111V23.5604V23.6098V23.6591V23.7088V23.7581V23.8075V23.8568V23.9061V23.9557V24.0002V24.0495V24.0988V24.1482V24.1976V24.2469V24.2965V24.3459V24.3952V24.4446V24.494H13.1038H13.054H13.0044H12.9548H12.9052H12.8554H12.8058H12.7562H12.7066H12.6567H12.6072H12.5576H12.508H12.4582H12.4086H12.359H12.3094H12.2595H12.21V24.4446V24.3952V24.3459V24.2968V24.2474V24.1981V24.1488V24.0995V24.0501V24.0008V23.9514V23.9021V23.8527V23.8034V23.754V23.7047V23.6554V23.606V23.5616V23.5122V23.4629V23.4136V23.3642V23.3149V23.2655V23.2162V23.1668V23.1175V23.0682V23.0189V22.9695V22.9201V22.8708V22.8214V22.7721V22.7227V22.6734V22.6241V22.5747V22.5254V22.4761V22.427V22.3776V22.3283V22.2789V22.2296V22.1803V22.1309V22.0816V22.0322V21.9829V21.9335V21.8842V21.8348V21.7904V21.7411V21.6917V21.6424V21.5931V21.5437V21.4944V21.445V21.3957V21.3463V21.297V21.2476V21.1983V21.1489V21.0996V21.0503V21.0009V20.9516V20.9022H12.2595H12.3094H12.354H12.4035H12.4532H12.503H12.5476H12.5972H12.6471H12.6966H12.7412H12.7908H12.8407H12.8903H12.9348H12.9844H13.0343H13.0839H13.1285H13.178H13.2279L13.2526 20.9417L13.2775 20.9861L13.3071 21.0253L13.3321 21.0697L13.357 21.1092L13.3816 21.1536L13.4065 21.1928L13.4363 21.2372L13.4611 21.2767L13.4861 21.3162L13.5107 21.3602L13.5357 21.3998L13.5653 21.4441L13.5902 21.4836L13.6151 21.5277L13.6398 21.5672L13.6697 21.6067L13.6947 21.6509L13.7193 21.6903L13.7442 21.7347L13.7689 21.7742L13.7988 21.8183L13.8237 21.8578L13.8483 21.9022L13.8733 21.9414L13.898 21.9808L13.9279 22.0252L13.9528 22.0647L13.9774 22.1092L14.0024 22.1484L14.027 22.1928L14.057 22.2322L14.0819 22.2763L14.1066 22.3158L14.1315 22.2763L14.1564 22.2322L14.186 22.1928L14.2109 22.1484L14.2356 22.1092L14.2605 22.0647L14.2902 22.0252L14.3151 21.9808L14.3401 21.9414L14.3647 21.9022L14.3946 21.8578L14.4192 21.8183L14.4442 21.7742L14.4691 21.7347L14.4987 21.6903L14.5236 21.6509L14.5486 21.6067L14.5732 21.5672L14.5982 21.5277L14.6278 21.4836L14.6528 21.4441L14.6777 21.3998L14.7024 21.3602L14.7322 21.3162L14.7569 21.2767L14.7818 21.2372L14.8068 21.1928L14.8364 21.1536L14.8614 21.1092L14.8859 21.0697L14.9109 21.0253L14.9409 20.9861L14.9655 20.9417L14.9904 20.9022H15.04H15.0896H15.1344H15.1841H15.2336H15.2832H15.3281H15.3777H15.4272H15.4768H15.5217H15.5713H15.6208H15.6705H15.7153H15.7649H15.8145H15.864H15.9089H15.9585H16.0081V20.9516V21.0009V21.0503V21.0996V21.1489V21.1983V21.2476V21.297V21.3463V21.3957V21.445V21.4944V21.5437V21.5931V21.6424V21.6917V21.7411V21.7904V21.8348V21.8842V21.9335V21.9829V22.0322V22.0816V22.1309V22.1803V22.2296V22.2789V22.3283V22.3776V22.427V22.4761V22.5254V22.5747V22.6241V22.6734V22.7227V22.7721V22.8214V22.8708V22.9201V22.9695V23.0189V23.0682V23.1175V23.1668V23.2162V23.2655V23.3149V23.3642V23.4136V23.4629V23.5122V23.5616V23.606V23.6554V23.7047V23.754V23.8034V23.8527V23.9021V23.9514V24.0008V24.0501V24.0995V24.1488V24.1981V24.2474V24.2968V24.3459V24.3952V24.4446V24.494H15.9585ZM10.1978 23.0139L10.1828 22.9692L10.1632 22.9198L10.1432 22.8754L10.1283 22.8307L10.1086 22.7863L10.0887 22.7369L10.0737 22.6923L10.0537 22.6478L10.0342 22.6035L10.0191 22.5588L9.99917 22.5094L9.98454 22.465L9.96457 22.4203L9.94459 22.3759L9.92969 22.3315L9.91 22.2819L9.89008 22.2374L9.87512 22.193L9.85515 22.1484L9.83551 22.099L9.82055 22.0543L9.80058 22.0099L9.78094 22.0543L9.76603 22.099L9.74606 22.1484L9.72609 22.193L9.71141 22.2374L9.69149 22.2819L9.67152 22.3315L9.65189 22.3759L9.63687 22.4203L9.61695 22.465L9.59698 22.5094L9.5823 22.5588L9.56238 22.6035L9.54241 22.6478L9.5275 22.6923L9.50781 22.7369L9.48784 22.7863L9.46793 22.8307L9.4533 22.8754L9.43333 22.9198L9.41336 22.9692L9.39839 23.0139L9.37876 23.0583H9.42832H9.47788H9.5275H9.57735H9.62691H9.67647H9.72609H9.77599H9.82055H9.87011H9.92001H9.96957H10.0191H10.0688H10.1183H10.1682H10.2177L10.1978 23.0139ZM11.757 24.494H11.7072H11.6625H11.613H11.5631H11.5136H11.4639H11.4194H11.3695H11.3199H11.2704H11.2207H11.1709H11.1263H11.0767H11.0271H10.9773H10.9277H10.8831H10.8335H10.7837L10.764 24.4495L10.749 24.4051L10.7291 24.3607L10.7091 24.3113L10.6944 24.2672L10.6745 24.2228L10.6546 24.1784L10.6399 24.134L10.62 24.0896L10.6 24.0452L10.5851 24.0008L10.5654 23.9514L10.5454 23.907L10.5305 23.8626L10.5105 23.8182H10.4609H10.4114H10.3618H10.3122H10.2673H10.2177H10.1682H10.1183H10.0688H10.0191H9.96957H9.92001H9.87011H9.82055H9.77599H9.72609H9.67647H9.62691H9.57735H9.5275H9.47788H9.42832H9.37876H9.32919H9.28425H9.23474H9.18512H9.13522H9.08566L9.06602 23.8626L9.05106 23.907L9.03109 23.9514L9.01117 24.0008L8.99649 24.0452L8.97657 24.0896L8.9566 24.134L8.94164 24.1784L8.922 24.2228L8.90203 24.2672L8.88707 24.3113L8.86738 24.3607L8.84746 24.4051L8.8325 24.4495L8.81253 24.494H8.76296H8.7134H8.66384H8.61394H8.56438H8.50981H8.46024H8.41062H8.36078H8.31122H8.26165H8.21203H8.16214H8.11263H8.06306H8.0085H7.9586H7.90903H7.85942H7.80985L7.82949 24.4495L7.84946 24.4051L7.86937 24.3607L7.88906 24.3113L7.90403 24.2672L7.924 24.2228L7.94391 24.1784L7.96355 24.134L7.98352 24.0896L8.00349 24.0402L8.02313 23.9958L8.0431 23.9514L8.058 23.907L8.07797 23.8626L8.09761 23.8182L8.11758 23.7689L8.13749 23.7245L8.15719 23.68L8.17716 23.6356L8.19707 23.5912L8.21203 23.5468L8.23167 23.4974L8.25164 23.4531L8.27161 23.4086L8.29125 23.3642L8.31122 23.3198L8.33119 23.2754L8.35082 23.226L8.36579 23.1817L8.38576 23.1372L8.40567 23.0928L8.42536 23.0484L8.44528 23.004L8.46519 22.9547L8.48489 22.9103L8.5048 22.8658L8.51976 22.8214L8.53973 22.7771L8.55937 22.7327L8.57934 22.6833L8.59931 22.6389L8.61895 22.5944L8.63886 22.55L8.65883 22.5057L8.67379 22.4612L8.69349 22.4171L8.7134 22.3677L8.73332 22.3234L8.75301 22.2789L8.77292 22.2345L8.79289 22.1901L8.81253 22.1457L8.82749 22.0963L8.84746 22.052L8.86738 22.0076L8.88707 21.9631L8.90704 21.9187L8.92695 21.8743L8.94665 21.8249L8.96656 21.7806L8.98152 21.7362L9.00144 21.6917L9.02113 21.6473L9.04104 21.6029L9.06102 21.5536L9.08065 21.5092L9.10062 21.4648L9.12059 21.4203L9.13522 21.376L9.15519 21.3315L9.17516 21.2822L9.19513 21.2378L9.21477 21.1934L9.23474 21.1489L9.25465 21.1045L9.27429 21.0602L9.28931 21.0108L9.30922 20.9664L9.32919 20.922L9.34883 20.8775H9.39839H9.44328H9.49285H9.54241H9.59231H9.63687H9.68643H9.73605H9.78595H9.83056H9.88007H9.92969H9.97953H10.0241H10.0737H10.1233H10.1732H10.2177H10.2673L10.2873 20.922L10.3072 20.9664L10.3269 21.0108L10.3468 21.0602L10.3618 21.1045L10.3814 21.1489L10.4014 21.1934L10.4213 21.2378L10.4413 21.2822L10.4609 21.3315L10.4809 21.376L10.5009 21.4203L10.5155 21.4648L10.5355 21.5092L10.5554 21.5536L10.5754 21.6029L10.595 21.6473L10.615 21.6917L10.6349 21.7362L10.6546 21.7806L10.6695 21.8249L10.6894 21.8743L10.7091 21.9187L10.7291 21.9631L10.749 22.0076L10.769 22.052L10.7886 22.0963L10.8085 22.1457L10.8236 22.1901L10.8432 22.2345L10.8631 22.2789L10.8831 22.3234L10.903 22.3677L10.9227 22.4171L10.9427 22.4612L10.9626 22.5057L10.9773 22.55L10.9972 22.5944L11.0171 22.6389L11.0368 22.6833L11.0567 22.7327L11.0767 22.7771L11.0967 22.8214L11.1163 22.8658L11.1313 22.9103L11.1512 22.9547L11.1709 23.004L11.1908 23.0484L11.2108 23.0928L11.2307 23.1372L11.2504 23.1817L11.2704 23.226L11.2853 23.2754L11.305 23.3198L11.3249 23.3642L11.3448 23.4086L11.3645 23.4531L11.3844 23.4974L11.4044 23.5468L11.4244 23.5912L11.439 23.6356L11.459 23.68L11.479 23.7245L11.4986 23.7689L11.5185 23.8182L11.5385 23.8626L11.5584 23.907L11.578 23.9514L11.593 23.9958L11.613 24.0402L11.6327 24.0896L11.6526 24.134L11.6725 24.1784L11.6922 24.2228L11.7121 24.2672L11.7321 24.3113L11.7471 24.3607L11.7667 24.4051L11.7866 24.4495L11.8065 24.494H11.757ZM7.40739 24.0353L7.3675 24.0649L7.33285 24.0896L7.29296 24.1192L7.25336 24.1439L7.21375 24.1735L7.17387 24.1981L7.13426 24.2228L7.08937 24.2474L7.04476 24.2722L7.00014 24.2968L6.95531 24.3162L6.91069 24.341L6.86113 24.3607L6.81657 24.3804L6.76668 24.4001L6.72212 24.4199L6.67745 24.4347L6.63261 24.4495L6.588 24.4644L6.53844 24.4791L6.49388 24.494L6.44398 24.5038L6.39937 24.5137L6.34981 24.5235L6.29997 24.5334L6.25035 24.5383L6.19578 24.5433L6.14621 24.5482L6.09164 24.5531L6.04175 24.5581L5.98723 24.563H5.93266H5.87803H5.82352H5.77362L5.72406 24.5581L5.66949 24.5531L5.61992 24.5482L5.57036 24.5433L5.52046 24.5383L5.4709 24.5285L5.42128 24.5186L5.37672 24.5087L5.32688 24.4989L5.28227 24.4841L5.2327 24.4742L5.18781 24.4593L5.1432 24.4396L5.09859 24.4248L5.04908 24.4051L5.00419 24.3854L4.95958 24.3657L4.91502 24.3459L4.87007 24.3213L4.83052 24.2968L4.78591 24.2722L4.74602 24.2474L4.70642 24.2228L4.66653 24.1932L4.62693 24.1636L4.58726 24.134L4.55239 24.1044L4.51778 24.0748L4.48285 24.0402L4.44825 24.0107L4.41332 23.9761L4.37872 23.9415L4.34879 23.907L4.31914 23.8676L4.28921 23.833L4.26429 23.7935L4.23464 23.754L4.20978 23.7146L4.18508 23.6751L4.16016 23.6307L4.13524 23.5912L4.1156 23.5468L4.09563 23.5024L4.07572 23.458L4.05602 23.4136L4.04106 23.3741L4.02109 23.3297L4.01113 23.2852L3.99645 23.2409L3.98649 23.1916L3.97153 23.1471L3.96157 23.0978L3.95656 23.0534L3.94655 23.004L3.94166 22.9596L3.93659 22.9103L3.93192 22.8609L3.92697 22.8116V22.7573V22.7079V22.6981V22.6487L3.93192 22.5944V22.5451L3.93659 22.4958L3.94166 22.4415L3.95161 22.3925L3.95656 22.3431L3.96652 22.2987L3.98148 22.2494L3.9915 22.2L4.00613 22.1556L4.02109 22.1062L4.03606 22.0618L4.05602 22.0125L4.07572 21.9681L4.09563 21.9237L4.1156 21.8793L4.13524 21.8348L4.16016 21.7904L4.18508 21.751L4.20978 21.7115L4.23464 21.672L4.25962 21.6325L4.28921 21.5931L4.31914 21.5536L4.34879 21.5141L4.37872 21.4795L4.41332 21.445L4.44324 21.4104L4.4779 21.376L4.51278 21.3414L4.54738 21.3118L4.58726 21.2772L4.62192 21.2476L4.66153 21.218L4.70141 21.1934L4.74102 21.1638L4.78096 21.1391L4.82051 21.1144L4.86512 21.0897L4.91001 21.0651L4.95457 21.0404L4.99918 21.0207L5.04402 21.0009L5.09364 20.9762L5.13324 20.9615L5.18281 20.9466L5.22775 20.9269L5.27231 20.917L5.31687 20.9022L5.36671 20.8924L5.41132 20.8775L5.46089 20.8677L5.51051 20.8627L5.56035 20.8529L5.60997 20.8479L5.65948 20.843L5.7091 20.8381L5.75899 20.8331H5.81356H5.86313H5.91764H5.97221L6.02712 20.8381L6.08168 20.843H6.13125L6.18081 20.8479L6.23538 20.8578L6.28027 20.8627L6.32984 20.8727L6.37946 20.8825L6.42429 20.8924L6.46885 20.9022L6.51352 20.9121L6.55841 20.9269L6.60297 20.9368L6.64257 20.9516L6.68746 20.9664L6.73208 20.9861L6.77663 21.0058L6.82152 21.0256L6.86614 21.0503L6.91069 21.07L6.95064 21.0947L6.99519 21.1193L7.0348 21.144L7.07969 21.1687L7.1193 21.1983L7.1589 21.223L7.19879 21.2526L7.23839 21.2822L7.27828 21.3167L7.31788 21.3463L7.28796 21.3858L7.25336 21.4203L7.22343 21.4598L7.18883 21.4993L7.1589 21.5388L7.12925 21.5733L7.09432 21.6128L7.06473 21.6522L7.0348 21.6868L7.00014 21.7263L6.97027 21.7658L6.93562 21.8052L6.90569 21.8398L6.8761 21.8793L6.84122 21.9187L6.81151 21.9582L6.77663 21.9928L6.74698 22.0322L6.7071 22.0026L6.66749 21.9681L6.62761 21.9434L6.588 21.9138L6.5484 21.8891L6.50851 21.8644L6.46885 21.8398L6.42429 21.8151L6.38441 21.7954L6.3448 21.7756L6.30492 21.7608L6.2603 21.746L6.21575 21.7312L6.17085 21.7214L6.12129 21.7115L6.07173 21.7016L6.02211 21.6967L5.96754 21.6917L5.91269 21.6868H5.85812H5.80856L5.75899 21.6917L5.7141 21.6967L5.66454 21.7066L5.61992 21.7165L5.57503 21.7312L5.53048 21.746L5.48586 21.7658L5.44125 21.7855L5.40137 21.8101L5.36181 21.8348L5.32188 21.8596L5.28727 21.8891L5.25234 21.9187L5.21774 21.9483L5.18781 21.9829L5.15321 22.0174L5.12329 22.0569L5.09859 22.0914L5.07367 22.1309L5.04908 22.1753L5.0241 22.2148L5.00419 22.2592L4.98922 22.3036L4.96953 22.348L4.95457 22.3974L4.94461 22.4464L4.93466 22.4908L4.92464 22.5451L4.91969 22.5944L4.91502 22.6438V22.6981V22.7079V22.7573L4.91969 22.8066L4.92464 22.851L4.92965 22.9004L4.93961 22.9448L4.94962 22.9892L4.95958 23.0336L4.97454 23.078L4.98922 23.1175L5.0092 23.1668L5.02911 23.2113L5.05375 23.2557L5.07867 23.2952L5.10359 23.3346L5.13324 23.3741L5.16317 23.4086L5.19777 23.4432L5.22775 23.4777L5.2623 23.5073L5.30224 23.5369L5.34185 23.5666L5.3814 23.5912L5.42128 23.6159L5.46595 23.6356L5.51051 23.6554L5.55534 23.6751L5.60496 23.6899L5.65453 23.7047L5.70442 23.7146L5.75399 23.7245L5.80355 23.7294L5.85812 23.7343H5.91269H5.97221L6.02712 23.7294L6.08168 23.7245L6.13125 23.7195L6.18081 23.7096L6.23071 23.6998L6.28027 23.685L6.32483 23.6751L6.3695 23.6554L6.40938 23.6356L6.45394 23.6159L6.48882 23.5962L6.52848 23.5715V23.5221V23.4728V23.4235V23.3741V23.3198V23.2705V23.2211V23.1718V23.1224H6.47886H6.43403H6.38441H6.33484H6.28528H6.24039H6.19077H6.14121H6.09164H6.04681H5.99719H5.94762H5.898H5.85317H5.80355V23.0731V23.0287V22.9793V22.93V22.8807V22.8362V22.7869V22.7376V22.6882V22.6438V22.5944V22.5451V22.4958V22.4513V22.4023H5.85317H5.90301H5.95263H6.00214H6.05176H6.10132H6.15122H6.20078H6.25035H6.29997H6.34981H6.39937H6.44893H6.4985H6.5484H6.59802H6.64758H6.69714H6.74698H6.7966H6.84617H6.89573H6.94557H6.99519H7.04476H7.09432H7.14422H7.19378H7.2434H7.29296H7.34281H7.39237H7.44199V22.4513V22.5007V22.55V22.5944V22.6438V22.6931V22.7424V22.7918V22.8412V22.8856V22.9349V22.9843V23.0336V23.083V23.1323V23.1817V23.226V23.2754V23.3248V23.3741V23.4235V23.4728V23.5221V23.5666V23.6159V23.6652V23.7146V23.7639V23.8132V23.8577V23.907V23.9563V24.0057L7.40739 24.0353Z" fill="#060606"/>
<path d="M5.81057 12.7755H7.96239V11.1286H5.81057V7.76644H8.04806V6.11955H3.98328V18.0054H8.0821V16.3584H5.81057V12.7755Z" fill="#060606"/>
<path d="M21.2235 13.1324V15.8153C21.2235 16.2907 21.0013 16.5113 20.5405 16.5113H20.1987C19.7206 16.5113 19.4985 16.2907 19.4985 15.8153V8.30997C19.4985 7.83453 19.7206 7.61394 20.1987 7.61394H20.5061C20.9673 7.61394 21.1894 7.83453 21.1894 8.30997V10.6364H22.9824V8.20809C22.9824 6.73099 22.2651 6.01779 20.7796 6.01779H19.8913C18.4057 6.01779 17.6711 6.74784 17.6711 8.2252V15.9C17.6711 17.3774 18.4057 18.1074 19.8913 18.1074H20.7966C22.2825 18.1074 23.0167 17.3774 23.0167 15.9V13.1324H21.2235Z" fill="#060606"/>
<path d="M14.8778 18.0054H16.7054V6.1195H14.8778V18.0054Z" fill="#060606"/>
<path d="M12.2261 11.4002C12.2261 11.8757 12.0043 12.0966 11.5432 12.0966H10.7916V7.71564H11.5432C12.0043 7.71564 12.2261 7.9363 12.2261 8.41167V11.4002ZM11.8333 6.1195H8.96423V18.0054H10.7916V13.6924H11.8333C13.3192 13.6924 14.0534 12.9624 14.0534 11.4853V8.32691C14.0534 6.84954 13.3192 6.1195 11.8333 6.1195Z" fill="#060606"/>
<path fill-rule="evenodd" clip-rule="evenodd" d="M8.29419 28.7529H18.7551L13.4157 30.4951L8.29419 28.7529Z" fill="#060606"/>
</svg>
