<svg width="30" height="28" viewBox="0 0 30 28" fill="none" xmlns="http://www.w3.org/2000/svg">
<g clip-path="url(#clip0_0_242)">
<path fill-rule="evenodd" clip-rule="evenodd" d="M8.93401 17.9725H5.45198H5.44615C5.17251 17.9725 4.95296 18.1905 4.95296 18.459C4.95296 18.459 4.95402 18.459 4.95402 18.4622H4.95296V20.9041H4.95402L4.95296 20.9062C4.95296 21.1737 5.17251 21.3938 5.44615 21.3938H5.45198H5.81259H8.93401V23.0229H4.58174V23.0188C3.86953 23.0188 3.29361 22.4537 3.29361 21.757V17.6046C3.29361 16.9115 3.86953 16.3465 4.58174 16.3465H8.93401V17.9725Z" fill="white"/>
<path fill-rule="evenodd" clip-rule="evenodd" d="M10.1933 13.4381C10.1933 14.1484 9.60832 14.7197 8.88762 14.7197H3.28964V13.0687H8.00412H8.00942C8.28731 13.0687 8.51004 12.846 8.51004 12.5749V12.5718V7.12119V7.11755C8.51004 6.84541 8.28731 6.62478 8.00942 6.62478H8.00412H5.47824H5.47294C5.19559 6.62478 4.97232 6.84541 4.97232 7.11755V7.12119V9.59801V9.60113C4.97232 9.87379 5.19559 10.0949 5.47294 10.0949H5.47824H7.49926V11.746H4.59474C3.87246 11.746 3.28964 11.1736 3.28964 10.4654V6.25378C3.28964 5.54612 3.87246 4.9727 4.59474 4.9727H8.88762C9.60832 4.9727 10.1933 5.54612 10.1933 6.25378V13.4381Z" fill="white"/>
<path fill-rule="evenodd" clip-rule="evenodd" d="M26.6888 23.0188H25.03V17.9725H23.8696H23.8643C23.5902 17.9725 23.3706 18.1905 23.3706 18.459V18.4622V23.0188H21.7118V17.9725H20.5488H20.5456C20.2709 17.9725 20.0514 18.1905 20.0514 18.459V18.4622V23.0229H18.3931V17.6046C18.3931 16.9115 18.9674 16.3465 19.6796 16.3465H26.6888V23.0188Z" fill="white"/>
<path fill-rule="evenodd" clip-rule="evenodd" d="M26.6934 13.4381C26.6934 14.1484 26.108 14.7197 25.3883 14.7197H19.7898V13.0687H24.5064H24.5096C24.7886 13.0687 25.0123 12.846 25.0123 12.5749V12.5718V7.12119V7.11755C25.0123 6.84541 24.7886 6.62478 24.5096 6.62478H24.5064H21.9784H21.9737C21.699 6.62478 21.4746 6.84541 21.4746 7.11755V7.12119V9.59801V9.60113C21.4746 9.87379 21.699 10.0949 21.9737 10.0949H21.9784H23.9989V11.746H21.096C20.3737 11.746 19.7898 11.1736 19.7898 10.4654V6.25378C19.7898 5.54612 20.3737 4.9727 21.096 4.9727H25.3883C26.108 4.9727 26.6934 5.54612 26.6934 6.25378V13.4381Z" fill="white"/>
<path fill-rule="evenodd" clip-rule="evenodd" d="M16.7564 7.1213V9.59761V9.60073C16.7564 9.87339 16.5385 10.0951 16.2601 10.0951H16.2542H13.7284H13.7246C13.4462 10.0951 13.2235 9.87339 13.2235 9.60073V9.59761V7.1213V7.11714C13.2235 6.845 13.4462 6.6249 13.7246 6.6249H13.7284H16.2542H16.2601C16.5385 6.6249 16.7564 6.845 16.7564 7.11714V7.1213ZM17.1388 4.97282H12.8443C12.1231 4.97282 11.5403 5.54623 11.5403 6.2539V10.4655C11.5403 11.1732 12.1231 11.7461 12.8443 11.7461H17.1388C17.8579 11.7461 18.4434 11.1732 18.4434 10.4655V6.2539C18.4434 5.54623 17.8579 4.97282 17.1388 4.97282Z" fill="white"/>
<path fill-rule="evenodd" clip-rule="evenodd" d="M15.406 18.4619V20.9039C15.406 21.1724 15.1864 21.3914 14.9138 21.3914C14.9112 21.3914 14.9107 21.3888 14.908 21.3888V21.3914H12.4198V21.3888C12.4198 21.3888 12.4171 21.3914 12.4145 21.3914C12.1408 21.3914 11.9213 21.1724 11.9213 20.9039V18.4619V18.4588C11.9213 18.1903 12.1408 17.9723 12.4145 17.9723H12.4198H14.908H14.9138C15.1864 17.9723 15.406 18.1903 15.406 18.4588V18.4619ZM15.7788 16.3462H11.549C10.8368 16.3462 10.2619 16.9113 10.2619 17.6044V21.7567C10.2619 22.4535 10.8368 23.0186 11.549 23.0186H15.7788C16.4883 23.0186 17.0643 22.4535 17.0643 21.7567V17.6044C17.0643 16.9113 16.4883 16.3462 15.7788 16.3462Z" fill="white"/>
<path d="M29.346 25.8554C29.346 26.2748 29.1737 26.6516 28.8937 26.9268C28.6137 27.201 28.2292 27.3696 27.8028 27.3696H2.18077C1.75387 27.3696 1.36992 27.201 1.08991 26.9268C0.80991 26.6516 0.63862 26.2748 0.63756 25.8554V2.13935C0.63862 1.72047 0.80991 1.34426 1.08991 1.069C1.36992 0.794785 1.75387 0.626194 2.18077 0.625673H27.8028C28.2292 0.626194 28.6137 0.794785 28.8937 1.069C29.1737 1.34426 29.346 1.72047 29.346 2.13935V25.8554ZM29.3439 0.626715C28.9504 0.23958 28.4042 0.000225067 27.8028 0.000225067H2.18077C1.57939 0.000225067 1.03317 0.23958 0.63968 0.626715C0.245127 1.01281 0.00012207 1.5498 0.00012207 2.13935V25.8554C0.00012207 26.4455 0.245127 26.9825 0.63968 27.3686C1.03317 27.7552 1.57939 27.9956 2.18077 27.9956H27.8028C28.4042 27.9956 28.9504 27.7552 29.3439 27.3686C29.7385 26.9825 29.9835 26.4455 29.9835 25.8554V2.13935C29.9835 1.5498 29.7385 1.01281 29.3439 0.626715Z" fill="white"/>
</g>
<defs>
<clipPath id="clip0_0_242">
<rect width="30" height="28" fill="white"/>
</clipPath>
</defs>
</svg>
