<svg width="61" height="18" viewBox="0 0 61 18" fill="none" xmlns="http://www.w3.org/2000/svg">
<g clip-path="url(#clip0_0_240)">
<path fill-rule="evenodd" clip-rule="evenodd" d="M17.4983 8.87177C17.5076 8.80738 17.5171 8.74253 17.5268 8.67717C18.0213 8.67717 19.6973 8.67572 19.9955 8.67608C19.7696 10.054 18.6713 15.5178 20.3594 15.5178C22.323 15.5178 23.3249 8.67789 23.3249 8.67789H24.5016H25.441C25.3257 9.62924 24.399 15.8264 25.0753 15.8264C25.4794 15.8264 25.9842 15.2262 26.4812 14.4163L26.9728 8.67753L29.5635 8.67644L29.4536 10.2561C29.4536 10.2561 30.4628 8.34188 32.9352 8.34188C33.9399 8.34188 34.7987 8.8639 35.018 10.0625C35.3511 9.57644 36.3927 8.34152 38.3785 8.34152C39.5453 8.34152 40.5155 9.02833 40.5155 10.6961C40.5155 11.4702 40.2155 13.0333 40.2155 13.0333C40.0658 14.1662 40.037 14.599 40.3812 14.599C40.5696 14.599 41.1309 14.0137 41.7644 13.2699C41.7621 13.1932 41.7603 13.1153 41.759 13.0362C41.6564 6.83003 44.1762 0.27555 44.1762 0.27555H46.3329C46.3329 0.27555 44.523 5.5996 43.9919 9.83343C43.9919 9.83343 44.9639 8.34188 47.4362 8.34188C48.6031 8.34188 49.5732 9.04638 49.5732 10.6961C49.5732 12.6295 48.2877 15.2237 46.6417 16.6482C45.1565 17.9338 42.4594 19.0121 41.8715 14.6484C41.1833 15.5718 40.5522 16.392 40.3352 16.6457C39.8282 17.2376 39.0639 17.7804 38.3343 17.7815C37.2912 17.7836 37.3788 16.4685 37.8321 13.0337L37.8588 12.806C38.011 11.2584 37.9606 10.2352 37.3814 10.2352C36.6365 10.2352 35.2603 11.0947 34.9512 12.7965C34.7786 14.3355 34.4525 15.7578 34.1819 17.4274H31.8085C32.291 13.6433 32.995 10.2356 31.9384 10.2356C31.1325 10.2356 29.5879 11.2414 29.4547 13.2315L29.0777 17.4274H26.2232L26.2691 16.8918C25.7901 17.3355 25.1826 17.6847 24.5972 17.6858C23.9414 17.6872 23.334 17.1679 23.0861 15.9285C22.9322 16.1261 22.753 16.3152 22.5405 16.502C21.8416 17.117 20.7707 17.6808 19.7663 17.6382C18.5882 17.5882 17.5348 16.8169 17.2545 14.2302C16.7476 15.1597 16.0901 16.0188 15.3621 16.6489C13.7164 18.0734 10.0651 19.2435 9.96216 13.037C9.94355 11.8936 10.014 10.7437 10.141 9.62852H7.94272C7.26094 13.9381 5.90467 17.4278 5.90467 17.4278H3.23045C3.23045 17.4278 7.19049 3.37143 4.6192 3.37143C2.04754 3.37143 1.22488 7.08483 1.22488 7.08483C1.22488 7.08483 0.135773 6.82786 0 6.79466C0.118254 4.89916 1.35737 2.4872 2.92204 1.13307C4.56737 -0.291439 8.21901 -1.46151 8.32194 4.74469C8.33471 5.52462 8.30624 6.30924 8.24639 7.08447H10.5304C11.2462 3.31441 12.3798 0.432546 12.3798 0.432546H15.054C15.054 0.432546 11.0943 14.4102 13.6656 14.4102C16.1195 14.4102 17.2038 10.3531 17.4983 8.87177ZM54.9372 16.8921C53.2583 17.9599 50.0385 19.1594 49.9364 13.0019C49.8334 6.79574 52.3533 0.240903 52.3533 0.240903H54.5103C54.5103 0.240903 50.6364 15.5088 53.2077 15.5178C53.3389 15.5183 53.7108 15.3496 54.1726 15.1097C54.0444 14.5271 53.9662 13.8301 53.9512 13.0019C53.9019 10.2814 55.3593 8.30759 57.8313 8.30723C58.9981 8.30723 59.9679 9.01173 59.9679 10.6622C59.9679 10.8287 59.9494 10.9982 59.9129 11.168C59.8688 11.7346 58.7815 13.581 56.9952 15.2725C57.1627 15.3927 57.3779 15.4709 57.6543 15.4709C58.8653 15.4709 59.608 15.0349 60.062 14.5347L60.7504 14.8473C60.4945 15.3876 60.0653 15.9852 59.3514 16.6139C58.2317 17.5985 56.1644 18.4477 54.9372 16.8921ZM58.1911 10.9978C58.1911 10.7466 58.1039 10.1024 57.3521 10.1024C56.0706 10.1024 55.5231 12.4389 55.9907 13.984C55.9907 13.984 58.1911 12.2386 58.1911 10.9978ZM44.4937 15.5178C45.7083 15.5178 46.7472 13.3946 47.2439 12.2895C47.8439 10.9541 47.5906 10.2356 46.4387 10.2356C45.6329 10.2356 43.9006 10.711 43.9006 12.6982C43.9006 13.7058 43.9944 15.5178 44.4937 15.5178Z" fill="white"/>
</g>
<defs>
<clipPath id="clip0_0_240">
<rect width="61" height="18" fill="white"/>
</clipPath>
</defs>
</svg>
