<svg width="24" height="20" viewBox="0 0 24 20" fill="none" xmlns="http://www.w3.org/2000/svg">
<path d="M24 10.1408C24 8.73239 22.8019 7.60563 21.3042 7.74648C20.7051 7.74648 19.9563 8.02817 19.507 8.4507C17.4103 7.1831 15.014 6.33803 12.468 6.33803L13.6661 0.985915L17.5601 1.83099C17.5601 2.8169 18.4587 3.52113 19.507 3.52113C20.5554 3.52113 21.3042 2.67606 21.3042 1.69014C21.3042 0.704225 20.4056 0 19.3573 0C18.6084 0 18.0094 0.422535 17.7098 0.985915L13.5164 0H13.2168C13.0671 0 13.0671 0.140845 13.0671 0.28169L11.5694 6.33803C9.0234 6.33803 6.62715 7.04225 4.53042 8.4507C3.48206 7.46479 1.83463 7.46479 0.786271 8.4507C-0.262091 9.43662 -0.262091 10.9859 0.786271 11.9718C0.936037 12.1127 1.23557 12.3944 1.5351 12.3944V13.0986C1.5351 16.9014 6.17785 20 12.0187 20C17.8596 20 22.5023 16.9014 22.5023 13.0986V12.3944C23.4009 11.9718 24 11.1268 24 10.1408ZM6.02808 11.9718C6.02808 10.9859 6.92668 10.2817 7.82527 10.2817C8.87364 10.2817 9.62246 11.1268 9.62246 11.9718C9.62246 12.8169 8.72387 13.662 7.82527 13.662C6.77691 13.662 6.02808 12.9577 6.02808 11.9718ZM16.5117 16.6197C15.1638 17.4648 13.6661 18.0282 12.0187 17.8873C10.3713 17.8873 8.87364 17.4648 7.52574 16.6197C7.37598 16.4789 7.37598 16.1972 7.52574 15.9155C7.67551 15.7746 7.97504 15.7746 8.12481 15.9155C9.17317 16.6197 10.5211 17.0423 11.869 16.9014C13.2168 17.0423 14.5647 16.6197 15.6131 15.9155C15.7629 15.7746 16.0624 15.7746 16.3619 15.9155C16.6615 16.0563 16.6615 16.338 16.5117 16.6197ZM16.0624 13.662C15.014 13.662 14.2652 12.8169 14.2652 11.9718C14.2652 11.1268 15.1638 10.2817 16.0624 10.2817C17.1108 10.2817 17.8596 11.1268 17.8596 11.9718C18.0094 12.9577 17.1108 13.662 16.0624 13.662Z" fill="white"/>
</svg>
