<svg width="25" height="19" viewBox="0 0 25 19" fill="none" xmlns="http://www.w3.org/2000/svg">
<path d="M7.84709 19C4.9587 19 2.26623 18.2227 0 16.8816C1.9241 16.9968 5.31971 16.7209 7.43177 14.857C4.25453 14.7221 2.82166 12.4675 2.63477 11.5041C2.90473 11.6004 4.19223 11.716 4.91905 11.4462C1.26419 10.5984 0.703507 7.63083 0.828104 6.72515C1.51339 7.16836 2.6763 7.32251 3.13316 7.28398C-0.272506 5.02941 0.952702 1.63793 1.55492 0.905679C3.99895 4.03846 7.66179 5.79795 12.1932 5.89582C12.1078 5.54912 12.0626 5.18817 12.0626 4.81744C12.0626 2.15684 14.387 0 17.2542 0C18.7523 0 20.1021 0.588797 21.0497 1.53061C22.0508 1.31357 23.5574 0.805491 24.2939 0.366126C23.9227 1.59939 22.7669 2.62819 22.0678 3.0095C22.0736 3.02247 22.0621 2.99647 22.0678 3.0095C22.6819 2.92355 24.3436 2.62809 25 2.21602C24.6754 2.90886 23.45 4.06082 22.4444 4.70574C22.6315 12.3401 16.3183 19 7.84709 19Z" fill="white"/>
</svg>
