<svg width="27" height="18" viewBox="0 0 27 18" fill="none" xmlns="http://www.w3.org/2000/svg">
<path d="M0.235774 3.547C0.359714 1.7661 1.89381 0.37041 3.80359 0.282101C6.56909 0.154226 10.5218 0 13.5 0C16.4782 0 20.4309 0.154226 23.1964 0.282101C25.1062 0.370409 26.6403 1.7661 26.7642 3.547C26.883 5.25323 27 7.35269 27 9C27 10.6473 26.883 12.7468 26.7642 14.453C26.6403 16.2339 25.1062 17.6296 23.1964 17.7179C20.4309 17.8458 16.4782 18 13.5 18C10.5218 18 6.56909 17.8458 3.80359 17.7179C1.89381 17.6296 0.359714 16.2339 0.235774 14.453C0.117029 12.7468 0 10.6473 0 9C0 7.35269 0.11703 5.25323 0.235774 3.547Z" fill="white"/>
<path d="M10 5V13L18 9L10 5Z" fill="black"/>
</svg>
