<svg width="206" height="67" viewBox="0 0 206 67" fill="none" xmlns="http://www.w3.org/2000/svg">
<path d="M19.17 8.55217L21.7865 65.5374L14.6954 65.863L13.55 40.9159L8.7656 41.1356L9.91107 66.0827L2.81995 66.4082L0.203435 9.42303L7.29455 9.09744L8.44001 34.0445L13.2244 33.8248L12.0789 8.87776L19.17 8.55217Z" fill="white"/>
<path d="M32.495 15.132L33.311 32.9025L38.0953 32.6828L38.4209 39.774L33.6366 39.9936L34.4564 57.8496L39.2408 57.6299L39.5664 64.721L27.6909 65.2663L25.0744 8.28107L36.9499 7.73579L37.2794 14.9123L32.495 15.132Z" fill="white"/>
<path d="M64.9373 63.5561L57.8462 63.8817L56.5808 56.8337L51.2838 57.0769L50.6696 64.2112L43.5785 64.5368L48.0531 7.22598L55.2296 6.89647L64.9373 63.5561ZM55.3969 49.6964L52.9516 35.5966L51.8086 49.8612L55.3969 49.6964Z" fill="white"/>
<path d="M90.0906 62.4012L82.9995 62.7267L76.38 41.6269L74.8422 41.6975L75.8229 63.0563L68.7318 63.3819L66.1153 6.39664L75.5986 5.96121C76.9086 5.90106 78.1449 6.10114 79.3076 6.56145C80.4703 7.02175 81.4984 7.65947 82.392 8.47459C83.2855 9.28972 84.0148 10.2551 84.5797 11.3707C85.1446 12.4863 85.4572 13.6991 85.5173 15.0091L86.2823 31.6689C86.3529 33.2068 86.0765 34.6464 85.4532 35.9878C84.8842 37.2696 84.051 38.3923 82.9537 39.3559L90.0906 62.4012ZM78.4262 15.3347C78.3974 14.7081 78.1163 14.1788 77.5827 13.7467C77.1062 13.312 76.5546 13.109 75.9281 13.1378L73.5359 13.2476L74.5166 34.6064L76.9942 34.4926C77.6181 34.4069 78.1475 34.1257 78.5822 33.6492C79.0169 33.1726 79.2199 32.621 79.1911 31.9945L78.4262 15.3347Z" fill="white"/>
<path d="M104.767 4.62191L105.097 11.7985L100.398 12.0142L102.685 61.8229L95.5938 62.1485L93.3068 12.3398L88.5224 12.5595L88.1929 5.38293L104.767 4.62191Z" fill="white"/>
<path d="M131.553 20.087L131.207 12.5687C131.176 11.8852 130.894 11.3274 130.36 10.8953C129.883 10.4606 129.332 10.2576 128.705 10.2864C128.079 10.3151 127.52 10.5691 127.028 11.0483C126.593 11.5249 126.392 12.1049 126.423 12.7884L128.2 51.4905C128.231 52.174 128.485 52.7331 128.962 53.1678C129.496 53.5999 130.076 53.8016 130.702 53.7728C131.329 53.7441 131.859 53.4914 132.294 53.0148C132.786 52.5356 133.016 51.9543 132.984 51.2708L132.639 43.7525L139.73 43.4269L140.076 50.9452C140.136 52.2552 139.937 53.5201 139.479 54.7397C139.076 55.8997 138.467 56.9266 137.652 57.8201C136.836 58.7137 135.843 59.4443 134.67 60.0118C133.554 60.5767 132.342 60.8892 131.032 60.9494C129.722 61.0095 128.485 60.8095 127.323 60.3492C126.16 59.8889 125.132 59.2511 124.238 58.436C123.345 57.6209 122.615 56.6555 122.05 55.5399C121.483 54.3674 121.169 53.1261 121.109 51.8161L119.332 13.114C119.272 11.804 119.472 10.5677 119.932 9.40498C120.39 8.18535 121.026 7.12875 121.841 6.23517C122.656 5.34159 123.623 4.64082 124.741 4.13286C125.857 3.56795 127.07 3.25542 128.38 3.19527C129.69 3.13512 130.926 3.33519 132.089 3.7955C133.306 4.19623 134.361 4.80416 135.255 5.61928C136.148 6.43441 136.85 7.42956 137.361 8.60472C137.926 9.72032 138.238 10.9331 138.298 12.2431L138.644 19.7614L131.553 20.087Z" fill="white"/>
<path d="M151.574 2.13028C152.884 2.07013 154.12 2.27021 155.283 2.73051C156.5 3.13125 157.555 3.73918 158.449 4.5543C159.343 5.36943 160.045 6.36457 160.555 7.53974C161.12 8.65534 161.433 9.86814 161.493 11.1781L163.274 49.9657C163.334 51.2757 163.134 52.512 162.674 53.6747C162.27 54.8348 161.661 55.8616 160.846 56.7552C160.031 57.6487 159.037 58.3793 157.864 58.9468C156.749 59.5117 155.536 59.8243 154.226 59.8844C152.916 59.9446 151.68 59.7445 150.517 59.2842C149.354 58.8239 148.326 58.1862 147.432 57.371C146.539 56.5559 145.81 55.5906 145.245 54.475C144.68 53.3594 144.367 52.1465 144.307 50.8365L142.526 12.049C142.466 10.739 142.666 9.50267 143.126 8.33999C143.584 7.12037 144.221 6.06376 145.036 5.17018C145.851 4.27661 146.817 3.57584 147.936 3.06788C149.051 2.50297 150.264 2.19043 151.574 2.13028ZM154.402 11.5037C154.37 10.8203 154.088 10.2625 153.554 9.83034C153.078 9.39561 152.526 9.19263 151.9 9.2214C151.273 9.25016 150.714 9.50414 150.222 9.98333C149.788 10.4599 149.586 11.0399 149.617 11.7234L151.398 50.511C151.427 51.1375 151.68 51.6681 152.156 52.1028C152.69 52.535 153.27 52.7366 153.896 52.7079C154.523 52.6791 155.054 52.4264 155.488 51.9498C155.98 51.4707 156.211 50.9178 156.183 50.2913L154.402 11.5037Z" fill="white"/>
<path d="M189.96 57.8156L182.868 58.1412L176.249 37.0413L174.711 37.1119L175.692 58.4707L168.601 58.7963L165.984 1.81109L175.468 1.37565C176.778 1.3155 178.014 1.51558 179.177 1.97589C180.339 2.4362 181.367 3.07391 182.261 3.88904C183.154 4.70416 183.884 5.66952 184.449 6.78512C185.014 7.90071 185.326 9.11351 185.386 10.4235L186.151 27.0834C186.222 28.6212 185.945 30.0608 185.322 31.4022C184.753 32.684 183.92 33.8067 182.823 34.7703L189.96 57.8156ZM178.295 10.7491C178.266 10.1226 177.985 9.59327 177.452 9.16115C176.975 8.72642 176.424 8.52344 175.797 8.55221L173.405 8.66205L174.386 30.0208L176.863 29.9071C177.487 29.8213 178.016 29.5402 178.451 29.0636C178.886 28.587 179.089 28.0355 179.06 27.409L178.295 10.7491Z" fill="white"/>
<path d="M198.192 7.52391L199.008 25.2944L203.793 25.0747L204.118 32.1658L199.334 32.3855L200.154 50.2415L204.938 50.0218L205.264 57.1129L193.388 57.6582L190.772 0.67295L202.647 0.127678L202.977 7.30423L198.192 7.52391Z" fill="white"/>
</svg>
